<?xml version="1.0" encoding="UTF-8"?><svg id="Layer_1" xmlns="http://www.w3.org/2000/svg" viewBox="0 0 470.29 568.56"><defs><style>.cls-1{fill:#fff;}</style></defs><polygon class="cls-1" points="196.74 123.44 263.51 123.44 263.51 98.46 192.13 98.46 196.74 123.44"/><path class="cls-1" d="M373.23,82.43h-30.73c-8.64-29.41-35.86-50.95-68.03-50.95h-132.71c-65.93,0-119.57,53.64-119.57,119.57v195.5h361.31l-87.98-119.58,13.45-32.96h98.43l40.7,25.63v-62.34c0-41.28-33.59-74.87-74.87-74.87ZM267.08,230.5l66.99,91.05h-178.85v-85.4h-25v85.4H47.19v-170.5c0-52.15,42.42-94.57,94.57-94.57h132.71c24.54,0,44.64,19.35,45.85,43.59l-53.24,130.42ZM423.1,174.35l-8.48-5.34h-95.44l25.14-61.58h28.91c27.5,0,49.87,22.37,49.87,49.87v17.05Z"/><polygon class="cls-1" points="22.19 400.58 39.46 400.58 39.46 537.08 62.74 537.08 62.74 400.58 80 400.58 80 378.7 22.19 378.7 22.19 400.58"/><path class="cls-1" d="M131.99,378.7h-23.28c-12.85,0-19.27,8.63-19.27,25.89v106.79c0,17.13,6.42,25.69,19.27,25.69h23.28c13.11,0,19.67-8.56,19.67-25.69v-106.79c0-17.26-6.56-25.89-19.67-25.89ZM128.58,507.97c0,4.95-1.68,7.43-5.02,7.43h-6.02c-3.48,0-5.22-2.47-5.22-7.43v-99.96c0-4.95,1.74-7.43,5.22-7.43h6.02c3.34,0,5.02,2.48,5.02,7.43v99.96Z"/><polygon class="cls-1" points="161.1 400.58 178.36 400.58 178.36 537.08 201.65 537.08 201.65 400.58 218.91 400.58 218.91 378.7 161.1 378.7 161.1 400.58"/><path class="cls-1" d="M230.35,387.93v139.91c0,6.16,3.08,9.23,9.23,9.23h38.94v-21.68h-23.28c-1.34,0-2.01-.73-2.01-2.21v-45.77h25.29v-21.08h-25.29v-43.56c0-1.47.67-2.21,2.01-2.21h23.28v-21.88h-38.94c-6.16,0-9.23,3.08-9.23,9.23Z"/><path class="cls-1" d="M364.24,378.7h-65.64c-4.55,0-6.83,2.28-6.83,6.82v151.55h22.28v-135.09c0-.93.47-1.41,1.41-1.41h11.84v136.5h21.08v-136.5h8.03c3.48,0,5.22,2.48,5.22,7.43v129.07h21.88v-132.48c0-17.26-6.42-25.89-19.27-25.89Z"/></svg>